<svg height="512" viewBox="0 0 512 512" width="512" xmlns="http://www.w3.org/2000/svg"><g><g><rect fill="#006df0" height="480" rx="20" width="272" x="64" y="16"/><g fill="#787680"><path d="m240 48h-80l-8-32h96z"/><path d="m168 448h64v24h-64z"/><path d="m448 272v-32l-50.18-5.28a103.54 103.54 0 0 0 -14.78-35.66l31.75-39.23-22.62-22.62-39.23 31.75a103.54 103.54 0 0 0 -35.66-14.78l-5.28-50.18h-32l-5.28 50.18a103.54 103.54 0 0 0 -35.66 14.78l-39.23-31.75-22.62 22.62 31.75 39.23a103.54 103.54 0 0 0 -14.78 35.66l-50.18 5.28v32l50.18 5.28a103.54 103.54 0 0 0 14.78 35.66l-31.75 39.23 22.62 22.62 39.23-31.75a103.54 103.54 0 0 0 35.66 14.78l5.28 50.18h32l5.28-50.18a103.54 103.54 0 0 0 35.66-14.78l39.23 31.75 22.62-22.62-31.75-39.23a103.54 103.54 0 0 0 14.78-35.66zm-152 56a72 72 0 1 1 72-72 72.006 72.006 0 0 1 -72 72z"/></g></g><g><path d="m232 440h-64a8 8 0 0 0 -8 8v24a8 8 0 0 0 8 8h64a8 8 0 0 0 8-8v-24a8 8 0 0 0 -8-8zm-8 24h-48v-8h48z"/><path d="m296 176a80 80 0 1 0 80 80 80.091 80.091 0 0 0 -80-80zm-64 80a63.951 63.951 0 0 1 96-55.39v110.78a63.951 63.951 0 0 1 -96-55.39zm112 42.264v-84.528a63.82 63.82 0 0 1 0 84.528z"/><path d="m448.84 232.04-44.54-4.68a110.893 110.893 0 0 0 -11.47-27.67l28.18-34.82a7.989 7.989 0 0 0 -.56-10.69l-22.63-22.63a7.989 7.989 0 0 0 -10.69-.56l-34.82 28.18c-2.71-1.58-5.49-3.03-8.31-4.37v-118.8a28.031 28.031 0 0 0 -28-28h-232a28.031 28.031 0 0 0 -28 28v440a28.031 28.031 0 0 0 28 28h232a28.031 28.031 0 0 0 28-28v-118.8c2.82-1.34 5.6-2.79 8.31-4.37l34.82 28.18a7.989 7.989 0 0 0 10.69-.56l22.63-22.63a7.989 7.989 0 0 0 .56-10.69l-28.18-34.82a110.893 110.893 0 0 0 11.47-27.67l44.54-4.68a8.007 8.007 0 0 0 7.16-7.96v-32a8.007 8.007 0 0 0 -7.16-7.96zm-211.09-208.04-4 16h-67.5l-4-16zm90.25 452a12.01 12.01 0 0 1 -12 12h-232a12.01 12.01 0 0 1 -12-12v-440a12.01 12.01 0 0 1 12-12h61.75l6.49 25.94a8 8 0 0 0 7.76 6.06h80a8 8 0 0 0 7.76-6.06l6.49-25.94h61.75a12.01 12.01 0 0 1 12 12v112.65c-1.11-.34-2.23-.65-3.36-.95l-4.68-44.54a8.007 8.007 0 0 0 -7.96-7.16h-32a8.007 8.007 0 0 0 -7.96 7.16l-4.68 44.54a110.893 110.893 0 0 0 -27.67 11.47l-34.82-28.18a7.989 7.989 0 0 0 -10.69.56l-22.63 22.63a7.989 7.989 0 0 0 -.56 10.69l28.18 34.82a110.893 110.893 0 0 0 -11.47 27.67l-44.54 4.68a8.007 8.007 0 0 0 -7.16 7.96v32a8.007 8.007 0 0 0 7.16 7.96l44.54 4.68a110.893 110.893 0 0 0 11.47 27.67l-28.18 34.82a7.989 7.989 0 0 0 .56 10.69l22.63 22.63a7.989 7.989 0 0 0 10.69.56l34.82-28.18a110.893 110.893 0 0 0 27.67 11.47l4.68 44.54a8.007 8.007 0 0 0 7.96 7.16h32a8.007 8.007 0 0 0 7.96-7.16l4.68-44.54c1.13-.3 2.25-.61 3.36-.95zm112-211.2-43.02 4.53a8 8 0 0 0 -7 6.32 95.149 95.149 0 0 1 -13.63 32.9 7.993 7.993 0 0 0 .47 9.42l27.22 33.63-12.44 12.44-33.63-27.22a8.009 8.009 0 0 0 -9.42-.48 94.977 94.977 0 0 1 -32.9 13.64 8 8 0 0 0 -6.32 7l-4.53 43.02h-17.6l-4.53-43.02a8 8 0 0 0 -6.32-7 94.977 94.977 0 0 1 -32.9-13.64 8.009 8.009 0 0 0 -9.42.48l-33.63 27.22-12.44-12.44 27.22-33.63a7.993 7.993 0 0 0 .47-9.42 95.149 95.149 0 0 1 -13.63-32.9 8 8 0 0 0 -7-6.32l-43.02-4.53v-17.6l43.02-4.53a8 8 0 0 0 7-6.32 94.977 94.977 0 0 1 13.64-32.9 8.009 8.009 0 0 0 -.48-9.42l-27.22-33.63 12.44-12.44 33.63 27.22a7.993 7.993 0 0 0 9.42.47 95.149 95.149 0 0 1 32.9-13.63 8 8 0 0 0 6.32-7l4.53-43.02h17.6l4.53 43.02a8 8 0 0 0 6.32 7 95.149 95.149 0 0 1 32.9 13.63 7.993 7.993 0 0 0 9.42-.47l33.63-27.22 12.44 12.44-27.22 33.63a8.009 8.009 0 0 0 -.48 9.42 94.977 94.977 0 0 1 13.64 32.9 8 8 0 0 0 7 6.32l43.02 4.53z"/></g></g></svg>