<svg width="922" height="584" viewBox="0 0 922 584" fill="none" xmlns="http://www.w3.org/2000/svg">
<g filter="url(#filter0_f)">
<ellipse cx="460.964" cy="535.431" rx="413.452" ry="4.56853" fill="black"/>
</g>
<path d="M90.5435 28C90.5435 13.0883 102.632 1 117.543 1H807.127C822.039 1 834.127 13.0883 834.127 28V502.193C834.127 503.85 832.784 505.193 831.127 505.193H93.5434C91.8866 505.193 90.5435 503.85 90.5435 502.193V28Z" fill="#1A202C" stroke="#4A5568" stroke-width="2"/>
<path d="M94.1118 26.5685C94.1118 14.4182 103.962 4.56848 116.112 4.56848H808.559C820.709 4.56848 830.558 14.4182 830.558 26.5685V487.005H94.1118V26.5685Z" fill="black"/>
<rect x="108.731" y="28.3243" width="703.553" height="438.579" fill="#9C9C9C"/>
<path d="M432.819 489.464V498.919H434.462V492.41H434.55L437.163 498.891H438.391L441.004 492.423H441.091V498.919H442.735V489.464H440.639L437.832 496.315H437.721L434.914 489.464H432.819ZM446.566 499.062C447.679 499.062 448.344 498.54 448.648 497.945H448.704V498.919H450.31V494.173C450.31 492.299 448.782 491.736 447.43 491.736C445.939 491.736 444.794 492.4 444.424 493.693L445.985 493.915C446.151 493.43 446.622 493.014 447.439 493.014C448.215 493.014 448.639 493.411 448.639 494.108V494.136C448.639 494.616 448.136 494.639 446.885 494.773C445.509 494.921 444.194 495.332 444.194 496.929C444.194 498.323 445.214 499.062 446.566 499.062ZM447 497.834C446.303 497.834 445.805 497.515 445.805 496.901C445.805 496.26 446.363 495.992 447.111 495.886C447.55 495.826 448.427 495.715 448.644 495.54V496.375C448.644 497.165 448.007 497.834 447 497.834ZM455.084 499.057C456.866 499.057 458.001 498 458.122 496.495H456.524C456.381 497.257 455.832 497.695 455.098 497.695C454.054 497.695 453.38 496.823 453.38 495.373C453.38 493.942 454.068 493.084 455.098 493.084C455.901 493.084 456.395 493.601 456.524 494.284H458.122C458.006 492.747 456.806 491.736 455.075 491.736C452.997 491.736 451.686 493.236 451.686 495.401C451.686 497.548 452.965 499.057 455.084 499.057ZM459.568 498.919H461.211V497.802H461.308C461.571 498.319 462.121 499.043 463.339 499.043C465.01 499.043 466.262 497.719 466.262 495.383C466.262 493.019 464.974 491.736 463.335 491.736C462.084 491.736 461.562 492.488 461.308 493H461.239V489.464H459.568V498.919ZM461.206 495.373C461.206 493.998 461.797 493.107 462.873 493.107C463.986 493.107 464.558 494.053 464.558 495.373C464.558 496.703 463.976 497.672 462.873 497.672C461.807 497.672 461.206 496.749 461.206 495.373ZM470.775 499.057C472.853 499.057 474.173 497.594 474.173 495.401C474.173 493.204 472.853 491.736 470.775 491.736C468.698 491.736 467.378 493.204 467.378 495.401C467.378 497.594 468.698 499.057 470.775 499.057ZM470.785 497.719C469.635 497.719 469.072 496.694 469.072 495.396C469.072 494.099 469.635 493.061 470.785 493.061C471.916 493.061 472.479 494.099 472.479 495.396C472.479 496.694 471.916 497.719 470.785 497.719ZM478.684 499.057C480.762 499.057 482.082 497.594 482.082 495.401C482.082 493.204 480.762 491.736 478.684 491.736C476.607 491.736 475.287 493.204 475.287 495.401C475.287 497.594 476.607 499.057 478.684 499.057ZM478.694 497.719C477.544 497.719 476.981 496.694 476.981 495.396C476.981 494.099 477.544 493.061 478.694 493.061C479.825 493.061 480.388 494.099 480.388 495.396C480.388 496.694 479.825 497.719 478.694 497.719ZM483.501 498.919H485.172V496.537L485.781 495.886L487.951 498.919H489.95L487.041 494.889L489.788 491.828H487.835L485.287 494.676H485.172V489.464H483.501V498.919ZM451.328 510.919H453.041V507.724H454.851C457.034 507.724 458.207 506.413 458.207 504.594C458.207 502.789 457.048 501.464 454.874 501.464H451.328V510.919ZM453.041 506.316V502.895H454.611C455.894 502.895 456.462 503.588 456.462 504.594C456.462 505.601 455.894 506.316 454.62 506.316H453.041ZM459.621 510.919H461.292V506.75C461.292 505.85 461.97 505.213 462.889 505.213C463.171 505.213 463.522 505.264 463.665 505.31V503.773C463.512 503.745 463.249 503.726 463.065 503.726C462.252 503.726 461.573 504.188 461.315 505.01H461.241V503.828H459.621V510.919ZM467.576 511.057C469.653 511.057 470.974 509.594 470.974 507.401C470.974 505.204 469.653 503.736 467.576 503.736C465.499 503.736 464.178 505.204 464.178 507.401C464.178 509.594 465.499 511.057 467.576 511.057ZM467.585 509.719C466.436 509.719 465.873 508.694 465.873 507.396C465.873 506.099 466.436 505.061 467.585 505.061C468.716 505.061 469.28 506.099 469.28 507.396C469.28 508.694 468.716 509.719 467.585 509.719Z" fill="#A0AEC0"/>
<path d="M0 504.538C0 503.433 0.895431 502.538 2 502.538H919.015C920.12 502.538 921.015 503.433 921.015 504.538V518.985H0V504.538Z" fill="#A3ACB1"/>
<path d="M0 504.538C0 503.433 0.895431 502.538 2 502.538H919.015C920.12 502.538 921.015 503.433 921.015 504.538V518.985H0V504.538Z" fill="url(#paint0_linear)"/>
<path d="M0 518.984H921.015L905.796 522.054C879.763 527.304 853.272 529.949 826.716 529.949H93.2489C64.064 529.949 34.9668 526.755 6.47681 520.424L0 518.984Z" fill="#647279"/>
<path d="M0 518.984H921.015L905.796 522.054C879.763 527.304 853.272 529.949 826.716 529.949H93.2489C64.064 529.949 34.9668 526.755 6.47681 520.424L0 518.984Z" fill="url(#paint1_linear)"/>
<path fill-rule="evenodd" clip-rule="evenodd" d="M384.7 502.538C385.17 509.681 391.113 515.33 398.375 515.33H523.553C530.815 515.33 536.758 509.681 537.229 502.538H384.7Z" fill="#96A1A8"/>
<path fill-rule="evenodd" clip-rule="evenodd" d="M384.7 502.538C385.17 509.681 391.113 515.33 398.375 515.33H523.553C530.815 515.33 536.758 509.681 537.229 502.538H384.7Z" fill="url(#paint2_linear)"/>
<defs>
<filter id="filter0_f" x="3.5127" y="486.863" width="914.904" height="97.1371" filterUnits="userSpaceOnUse" color-interpolation-filters="sRGB">
<feFlood flood-opacity="0" result="BackgroundImageFix"/>
<feBlend mode="normal" in="SourceGraphic" in2="BackgroundImageFix" result="shape"/>
<feGaussianBlur stdDeviation="22" result="effect1_foregroundBlur"/>
</filter>
<linearGradient id="paint0_linear" x1="-1.77672e-10" y1="510.762" x2="921.015" y2="510.762" gradientUnits="userSpaceOnUse">
<stop stop-color="#0D1012"/>
<stop offset="0.0295345" stop-color="#CAD4DB"/>
<stop offset="0.0625" stop-color="#242729"/>
<stop offset="0.133609" stop-color="#A3ACB1"/>
<stop offset="0.865967" stop-color="#A3ACB1"/>
<stop offset="0.941937" stop-color="#242729"/>
<stop offset="0.971275" stop-color="#CAD4DB"/>
<stop offset="0.996436" stop-color="#0D1012"/>
</linearGradient>
<linearGradient id="paint1_linear" x1="460.508" y1="518.984" x2="460.508" y2="529.949" gradientUnits="userSpaceOnUse">
<stop stop-color="#7A7F83"/>
<stop offset="1" stop-color="#0B0B0E"/>
</linearGradient>
<linearGradient id="paint2_linear" x1="399.746" y1="510.305" x2="524.924" y2="510.305" gradientUnits="userSpaceOnUse">
<stop stop-color="#3C3C3C"/>
<stop offset="0.317518" stop-color="#3C3C3C" stop-opacity="0"/>
<stop offset="0.660584" stop-color="#3C3C3C" stop-opacity="0"/>
<stop offset="1" stop-color="#444444"/>
</linearGradient>
</defs>
</svg>
