<svg height="496pt" viewBox="0 0 496 496" width="496pt" xmlns="http://www.w3.org/2000/svg"><g fill="#ffeaa7"><path d="m424 200v176l-16-16-12 12-25.761719-25.761719c13.683594-18.558593 21.761719-41.519531 21.761719-66.238281 0-31.359375-12.878906-59.679688-33.679688-80zm0 0"/><path d="m157.359375 200h44.320313c-20.800782 20.320312-33.679688 48.640625-33.679688 80 0 16.71875 3.679688 32.640625 10.320312 46.960938l-2.320312 1.039062h-48v-84zm0 0"/><path d="m50.640625 200 5.359375 8v120h-48v-128zm0 0"/><path d="m8 392h48v48h-48zm0 0"/><path d="m392 440h-264v-48h152c24.71875 0 47.679688-8.078125 66.238281-21.761719l25.761719 25.761719-12 12zm0 0"/></g><path d="m279.359375 392h-151.359375v48h-72v-48h-48v-64h48v-120l48 72 24-36v84h48l2.320312-1.039062c17.679688 38.238281 56.238282 64.800781 101.039063 65.039062zm0 0" fill="#b4dd7f"/><path d="m488 24v112c0 8.800781-7.199219 16-16 16h-32v-48h-64v48h-32c-8.800781 0-16-7.199219-16-16v-112c0-8.800781 7.199219-16 16-16h32v48h64v-48h32c8.800781 0 16 7.199219 16 16zm0 0" fill="#cf9e76"/><path d="m408 104h32v48h-64v-48zm0 0" fill="#e6e9ed"/><path d="m376 8h64v48h-64zm0 0" fill="#e6e9ed"/><path d="m128 244-24 36-48-72-5.359375-8-26.480469-39.839844c-10.558594-15.761718-16.160156-34.238281-16.160156-53.199218v-2.960938c0-26.558594 10.71875-50.558594 28.078125-67.921875 17.363281-17.359375 41.363281-28.078125 67.921875-28.078125 53.039062 0 96 42.960938 96 96v2.960938c0 18.960937-5.601562 37.4375-16.160156 53.199218l-26.480469 39.839844zm0 0" fill="#ff826e"/><path d="m168 104c0 35.347656-28.652344 64-64 64s-64-28.652344-64-64 28.652344-64 64-64 64 28.652344 64 64zm0 0" fill="#fcd770"/><path d="m478.078125 430.078125c6.320313 6.320313 9.921875 14.960937 9.921875 24 0 9.363281-3.839844 17.84375-9.921875 24-6.15625 6.082031-14.636719 9.921875-24 9.921875-9.039063 0-17.679687-3.601562-24-9.921875l-70.078125-70.078125 48-48zm0 0" fill="#d3a06c"/><path d="m396 372-24 24-25.761719-25.761719c9.203125-6.71875 17.28125-14.796875 24-24zm0 0" fill="#aab2bd"/><path d="m346.238281 370.238281c-18.558593 13.683594-41.519531 21.761719-66.238281 21.761719-.238281 0-.398438 0-.640625 0-44.800781-.238281-83.359375-26.800781-101.039063-65.039062-6.640624-14.320313-10.320312-30.242188-10.320312-46.960938 0-31.359375 12.878906-59.679688 33.679688-80 20.242187-19.761719 47.839843-32 78.320312-32s58.078125 12.238281 78.320312 32c20.800782 20.320312 33.679688 48.640625 33.679688 80 0 24.71875-8.078125 47.679688-21.761719 66.238281-6.71875 9.203125-14.796875 17.28125-24 24zm0 0" fill="#ccd1d9"/><path d="m280 200c44.160156 0 80 35.839844 80 80s-35.839844 80-80 80-80-35.839844-80-80 35.839844-80 80-80zm0 0" fill="#69d6f4"/><path d="m328 248v64h-96v-64h32v32h32v-32zm0 0" fill="#cf9e76"/><path d="m264 248h32v32h-32zm0 0" fill="#e6e9ed"/><path d="m280 368c48.519531 0 88-39.480469 88-88s-39.480469-88-88-88-88 39.480469-88 88 39.480469 88 88 88zm0-160c39.703125 0 72 32.304688 72 72s-32.296875 72-72 72-72-32.304688-72-72 32.296875-72 72-72zm0 0"/><path d="m336 320v-80h-112v80zm-64-64h16v16h-16zm-32 0h16v32h48v-32h16v48h-80zm0 0"/><path d="m176 104c0-39.695312-32.296875-72-72-72s-72 32.304688-72 72 32.296875 72 72 72 72-32.304688 72-72zm-128 0c0-30.878906 25.128906-56 56-56s56 25.121094 56 56-25.128906 56-56 56-56-25.121094-56-56zm0 0"/><path d="m432 372.6875v-180.6875h-70.6875c-21.410156-19.792969-49.921875-32-81.3125-32s-59.902344 12.207031-81.3125 32h-26.414062l18.246093-27.375c11.441407-17.136719 17.480469-37.089844 17.480469-57.6875v-2.9375c0-57.34375-46.65625-104-104-104s-104 46.65625-104 104v2.9375c0 20.597656 6.039062 40.550781 17.472656 57.6875l18.246094 27.375h-35.71875v256h388.6875l35.710938 35.710938c7.921874 7.929687 18.449218 12.289062 29.664062 12.289062 23.121094 0 41.9375-18.816406 41.9375-41.945312 0-11.191407-4.359375-21.726563-12.28125-29.65625zm-16-16-8-8-12 12-15.433594-15.429688c12.25-18.800781 19.433594-41.195312 19.433594-65.257812 0-27.03125-9.089844-51.921875-24.222656-72h40.222656zm-44 28-13.832031-13.832031c4.535156-3.910157 8.777343-8.152344 12.6875-12.6875l13.832031 13.832031zm-92-208.6875c57.34375 0 104 46.65625 104 104s-46.65625 104-104 104-104-46.65625-104-104 46.65625-104 104-104zm-160 256h-56v-48h-48v-48h48v-101.585938l40 60 16-24v65.585938h53.953125c10.632813 20.054688 26.800781 36.695312 46.4375 48h-100.390625zm64.222656-224c-15.132812 20.078125-24.222656 44.96875-24.222656 72 0 14.039062 2.550781 27.464844 7 40h-31v-73.574219l25.617188-38.425781zm-168.222656-101.0625v-2.9375c0-48.519531 39.480469-88 88-88s88 39.480469 88 88v2.9375c0 17.429688-5.113281 34.308594-14.785156 48.816406l-73.214844 109.820313-73.214844-109.832031c-9.671875-14.496094-14.785156-31.375-14.785156-48.804688zm30.382812 101.0625 1.617188 2.414062v109.585938h-32v-112zm-30.382812 192h32v32h-32zm120 32v-32h143.359375v-.03125c.214844 0 .425781.03125.640625.03125 24.0625 0 46.449219-7.183594 65.257812-19.433594l15.429688 15.433594-12 12 24 24zm318.0625 48c-6.933594 0-13.445312-2.695312-18.34375-7.601562l-64.40625-64.398438 36.6875-36.6875 64.398438 64.398438c4.90625 4.90625 7.601562 11.425781 7.601562 18.34375 0 14.304687-11.632812 25.945312-25.9375 25.945312zm0 0"/><path d="m472 0h-128c-13.230469 0-24 10.769531-24 24v112c0 13.230469 10.769531 24 24 24h128c13.230469 0 24-10.769531 24-24v-112c0-13.230469-10.769531-24-24-24zm-72 32v16h-16v-32h48v32h-16v-16zm16 96v-16h16v32h-48v-32h16v16zm64 8c0 4.40625-3.585938 8-8 8h-24v-48h-80v48h-24c-4.414062 0-8-3.59375-8-8v-112c0-4.40625 3.585938-8 8-8h24v48h80v-48h24c4.414062 0 8 3.59375 8 8zm0 0"/></svg>