<svg width="909" height="467" viewBox="0 0 909 467" fill="none" xmlns="http://www.w3.org/2000/svg">
<g filter="url(#filter0_dd)">
<path d="M581.955 25.9182C581.955 13.2589 592.198 2.99658 604.835 2.99658L881.883 2.99658C894.52 2.99658 904.764 13.2589 904.764 25.9182L904.764 428.541C904.764 441.2 894.52 451.463 881.883 451.463L604.835 451.463C592.198 451.463 581.955 441.2 581.955 428.541L581.955 25.9182Z" fill="#3A4245"/>
</g>
<path d="M583.944 25.9182C583.944 14.3597 593.297 4.98975 604.835 4.98975L881.884 4.98975C893.421 4.98975 902.774 14.3597 902.774 25.9182L902.774 428.541C902.774 440.099 893.421 449.469 881.884 449.469L604.835 449.469C593.297 449.469 583.944 440.099 583.944 428.541L583.944 25.9182Z" fill="#121515"/>
<path fill-rule="evenodd" clip-rule="evenodd" d="M904.764 38.3755C905.313 38.3755 905.759 38.5361 905.759 38.7343L905.759 55.9554C905.759 56.1535 905.313 56.3141 904.764 56.3141L904.764 38.3755Z" fill="#121515"/>
<path fill-rule="evenodd" clip-rule="evenodd" d="M904.764 59.8022C905.313 59.8022 905.759 59.9673 905.759 60.171L905.759 77.8704C905.759 78.0741 905.313 78.2392 904.764 78.2392L904.764 59.8022Z" fill="#121515"/>
<path fill-rule="evenodd" clip-rule="evenodd" d="M851.045 2.99658C851.045 2.44618 851.321 1.99999 851.662 1.99999L881.267 1.99999C881.607 1.99999 881.883 2.44618 881.883 2.99658L851.045 2.99658Z" fill="#121515"/>
<mask id="mask0" mask-type="alpha" maskUnits="userSpaceOnUse" x="600" y="21" width="286" height="412">
<path d="M600.855 28.4097C600.855 24.8321 603.75 21.9319 607.322 21.9319L879.396 21.9319C882.968 21.9319 885.863 24.8321 885.863 28.4097L885.863 426.049C885.863 429.627 882.968 432.527 879.396 432.527L607.322 432.527C603.75 432.527 600.855 429.627 600.855 426.049L600.855 28.4097Z" fill="white"/>
</mask>
<g mask="url(#mask0)">
<path d="M600.855 28.4097C600.855 24.8321 603.75 21.9319 607.322 21.9319L879.396 21.9319C882.968 21.9319 885.863 24.8321 885.863 28.4097L885.863 426.05C885.863 429.627 882.968 432.527 879.396 432.527L607.322 432.527C603.75 432.527 600.855 429.627 600.855 426.05L600.855 28.4097Z" fill="#C4C4C4"/>
</g>
<g filter="url(#filter1_dd)">
<path d="M68.4006 66.3609C68.4006 56.7045 68.4006 51.8763 70.2742 48.188C71.9222 44.9437 74.5519 42.306 77.7864 40.653C81.4635 38.7737 86.277 38.7737 95.9042 38.7737H624.273C633.9 38.7737 638.714 38.7737 642.391 40.653C645.625 42.306 648.255 44.9437 649.903 48.188C651.777 51.8763 651.777 56.7045 651.777 66.3609V412.782C651.777 422.438 651.777 427.267 649.903 430.955C648.255 434.199 645.625 436.837 642.391 438.49C638.714 440.369 633.9 440.369 624.273 440.369H95.9042C86.277 440.369 81.4635 440.369 77.7864 438.49C74.5519 436.837 71.9222 434.199 70.2742 430.955C68.4006 427.267 68.4006 422.438 68.4006 412.782V66.3609Z" fill="#3A4245"/>
</g>
<path d="M69.833 65.4988C69.833 56.647 69.833 52.2212 71.5504 48.8402C73.0611 45.8663 75.4717 43.4484 78.4366 41.9331C81.8073 40.2104 86.2197 40.2104 95.0446 40.2104H625.132C633.957 40.2104 638.37 40.2104 641.74 41.9331C644.705 43.4484 647.116 45.8663 648.627 48.8402C650.344 52.2212 650.344 56.647 650.344 65.4988V413.644C650.344 422.496 650.344 426.922 648.627 430.303C647.116 433.277 644.705 435.694 641.74 437.21C638.37 438.932 633.957 438.932 625.132 438.932H95.0446C86.2197 438.932 81.8073 438.932 78.4366 437.21C75.4717 435.694 73.0611 433.277 71.5504 430.303C69.833 426.922 69.833 422.496 69.833 413.644V65.4988Z" fill="#262C2D"/>
<path d="M71.2656 64.6368C71.2656 56.5898 71.2656 52.5663 72.8269 49.4927C74.2003 46.7891 76.3917 44.5911 79.0871 43.2135C82.1513 41.6475 86.1626 41.6475 94.1852 41.6475H625.992C634.015 41.6475 638.026 41.6475 641.09 43.2135C643.786 44.5911 645.977 46.7891 647.35 49.4927C648.912 52.5663 648.912 56.5898 648.912 64.6368V414.506C648.912 422.553 648.912 426.577 647.35 429.65C645.977 432.354 643.786 434.552 641.09 435.93C638.026 437.496 634.015 437.496 625.992 437.496H94.1852C86.1626 437.496 82.1513 437.496 79.0871 435.93C76.3917 434.552 74.2003 432.354 72.8269 429.65C71.2656 426.577 71.2656 422.553 71.2656 414.506V64.6368Z" fill="#121515"/>
<rect x="71.2656" y="418.458" width="577.646" height="10.7763" fill="#262C2D"/>
<mask id="mask1" mask-type="alpha" maskUnits="userSpaceOnUse" x="83" y="62" width="554" height="348">
<rect x="83.4417" y="62.4814" width="553.294" height="346.996" fill="white"/>
</mask>
<g mask="url(#mask1)">
<rect x="83.4417" y="62.4814" width="553.294" height="346.996" fill="#C4C4C4"/>
</g>
<path fill-rule="evenodd" clip-rule="evenodd" d="M360.089 54.9381C361.176 54.9381 362.058 54.0536 362.058 52.9625C362.058 51.8713 361.176 50.9868 360.089 50.9868C359.001 50.9868 358.119 51.8713 358.119 52.9625C358.119 54.0536 359.001 54.9381 360.089 54.9381Z" fill="#262C2D"/>
<path fill-rule="evenodd" clip-rule="evenodd" d="M360.088 54.1973C360.768 54.1973 361.32 53.6445 361.32 52.9626C361.32 52.2806 360.768 51.7278 360.088 51.7278C359.409 51.7278 358.857 52.2806 358.857 52.9626C358.857 53.6445 359.409 54.1973 360.088 54.1973Z" fill="#121515"/>
<path opacity="0.4" fill-rule="evenodd" clip-rule="evenodd" d="M360.088 52.7156C360.224 52.7156 360.335 52.605 360.335 52.4686C360.335 52.3322 360.224 52.2217 360.088 52.2217C359.953 52.2217 359.842 52.3322 359.842 52.4686C359.842 52.605 359.953 52.7156 360.088 52.7156Z" fill="#636F73"/>
<path d="M0 429.952C0 429.556 0.320671 429.234 0.716238 429.234H359.372C359.768 429.234 360.089 429.556 360.089 429.952V440.369H0V429.952Z" fill="url(#paint0_linear)"/>
<path d="M719.999 429.952C719.999 429.556 719.678 429.234 719.282 429.234H360.626C360.23 429.234 359.91 429.556 359.91 429.952V440.369H719.999V429.952Z" fill="url(#paint1_linear)"/>
<path d="M316.935 437.136H403.242C407.791 437.136 411.479 433.598 411.479 429.234H308.699C308.699 433.598 312.386 437.136 316.935 437.136Z" fill="#4E4F53"/>
<path d="M316.935 437.136H403.242C407.791 437.136 411.479 433.598 411.479 429.234H308.699C308.699 433.598 312.386 437.136 316.935 437.136Z" fill="url(#paint2_linear)"/>
<path fill-rule="evenodd" clip-rule="evenodd" d="M359.552 440.369H0C0 440.369 15.7572 450.427 67.5054 450.427H359.552H360.268H652.672C704.42 450.427 720.177 440.369 720.177 440.369H360.268H359.552Z" fill="url(#paint3_linear)"/>
<path d="M721.168 255.366H721.664C721.937 255.366 722.159 255.589 722.159 255.863V288.319C722.159 288.593 721.937 288.816 721.664 288.816H721.168V255.366Z" fill="#1C3343"/>
<path d="M583.473 295.771L582.978 295.771C582.704 295.771 582.483 295.548 582.483 295.274L582.483 275.734C582.483 275.46 582.704 275.237 582.978 275.237L583.473 275.237L583.473 295.771Z" fill="#1C3343"/>
<path d="M583.473 268.614L582.978 268.614C582.704 268.614 582.483 268.391 582.483 268.117L582.483 248.577C582.483 248.303 582.704 248.08 582.978 248.08L583.473 248.08L583.473 268.614Z" fill="#213744"/>
<path d="M583.473 238.145L582.978 238.145C582.704 238.145 582.483 237.923 582.483 237.648L582.483 228.044C582.483 227.77 582.704 227.547 582.978 227.547L583.473 227.547L583.473 238.145Z" fill="#213744"/>
<path d="M583.473 212.644C583.473 204.63 583.473 200.624 584.524 197.381C586.647 190.827 591.77 185.689 598.304 183.56C601.537 182.506 605.532 182.506 613.522 182.506H691.12C699.11 182.506 703.105 182.506 706.338 183.56C712.872 185.689 717.995 190.827 720.118 197.381C721.169 200.624 721.169 204.63 721.169 212.644V436.523C721.169 444.536 721.169 448.543 720.118 451.785C717.995 458.339 712.872 463.477 706.338 465.606C703.105 466.66 699.11 466.66 691.12 466.66H613.522C605.532 466.66 601.537 466.66 598.304 465.606C591.77 463.477 586.647 458.339 584.524 451.785C583.473 448.543 583.473 444.536 583.473 436.523V212.644Z" fill="#213744"/>
<path fill-rule="evenodd" clip-rule="evenodd" d="M691.252 183.169H613.39C605.497 183.169 601.629 183.173 598.508 184.19C592.175 186.254 587.209 191.234 585.152 197.586C584.138 200.716 584.133 204.596 584.133 212.511V436.655C584.133 444.571 584.138 448.451 585.152 451.581C587.209 457.933 592.175 462.913 598.508 464.977C601.629 465.994 605.497 465.998 613.39 465.998H691.252C699.145 465.998 703.013 465.994 706.134 464.977C712.467 462.913 717.432 457.933 719.49 451.581C720.504 448.451 720.508 444.571 720.508 436.655V212.512C720.508 204.596 720.504 200.716 719.49 197.586C717.432 191.234 712.467 186.254 706.134 184.19C703.013 183.173 699.145 183.169 691.252 183.169ZM584.838 197.483C583.803 200.676 583.803 204.621 583.803 212.511V436.655C583.803 444.545 583.803 448.49 584.838 451.683C586.928 458.136 591.972 463.195 598.406 465.292C601.589 466.329 605.523 466.329 613.39 466.329H691.252C699.119 466.329 703.052 466.329 706.236 465.292C712.669 463.195 717.713 458.136 719.804 451.683C720.838 448.49 720.838 444.545 720.838 436.655V212.512C720.838 204.621 720.838 200.676 719.804 197.483C717.713 191.031 712.669 185.972 706.236 183.875C703.052 182.838 699.119 182.838 691.252 182.838H613.39C605.523 182.838 601.589 182.838 598.406 183.875C591.972 185.972 586.928 191.031 584.838 197.483Z" fill="#8EADC1"/>
<path d="M585.124 211.982C585.124 204.585 585.124 200.886 586.094 197.893C588.053 191.843 592.782 187.1 598.814 185.135C601.798 184.162 605.486 184.162 612.861 184.162H691.78C699.155 184.162 702.843 184.162 705.827 185.135C711.859 187.1 716.588 191.843 718.548 197.893C719.517 200.886 719.517 204.585 719.517 211.982V437.185C719.517 444.582 719.517 448.281 718.548 451.274C716.588 457.323 711.859 462.066 705.827 464.032C702.843 465.004 699.155 465.004 691.78 465.004H612.861C605.486 465.004 601.798 465.004 598.814 464.032C592.782 462.066 588.053 457.323 586.094 451.274C585.124 448.281 585.124 444.582 585.124 437.185V211.982Z" fill="#121515"/>
<rect x="691.78" y="182.506" width="1.98122" height="1.65591" fill="#36454C"/>
<rect x="719.518" y="210.988" width="1.65103" height="1.98709" fill="#36454C"/>
<rect x="583.473" y="210.988" width="1.65102" height="1.98709" fill="#36454C"/>
<rect x="583.473" y="436.191" width="1.65102" height="1.98711" fill="#36454C"/>
<rect x="719.518" y="436.191" width="1.65103" height="1.98711" fill="#36454C"/>
<rect x="610.88" y="465.004" width="1.98123" height="1.65591" fill="#36454C"/>
<mask id="mask2" mask-type="alpha" maskUnits="userSpaceOnUse" x="589" y="188" width="126" height="273">
<path d="M618.475 192.111V190.62C618.475 189.614 617.662 188.799 616.659 188.799L612.406 188.799C605.757 188.799 602.432 188.799 599.781 189.804C595.613 191.383 592.324 194.683 590.749 198.862C589.747 201.522 589.747 204.856 589.747 211.524V437.642C589.747 444.311 589.747 447.645 590.749 450.304C592.324 454.484 595.613 457.783 599.781 459.363C602.432 460.368 605.757 460.368 612.406 460.368H692.236C698.885 460.368 702.209 460.368 704.861 459.363C709.028 457.783 712.318 454.484 713.893 450.304C714.895 447.645 714.895 444.311 714.895 437.642V211.524C714.895 204.856 714.895 201.522 713.893 198.862C712.318 194.683 709.028 191.383 704.861 189.804C702.209 188.799 698.885 188.799 692.236 188.799L687.983 188.799C686.98 188.799 686.167 189.614 686.167 190.62V192.111L686.143 192.11L686.167 192.276C686.167 196.209 682.988 199.397 679.067 199.397H625.574C621.653 199.397 618.475 196.209 618.475 192.276L618.499 192.11L618.475 192.111Z" fill="#C4C4C4"/>
</mask>
<g mask="url(#mask2)">
<rect x="589.747" y="188.799" width="125.148" height="271.569" fill="#C4C4C4"/>
</g>
<path fill-rule="evenodd" clip-rule="evenodd" d="M666.355 195.753C667.813 195.753 668.996 194.567 668.996 193.104C668.996 191.641 667.813 190.455 666.355 190.455C664.896 190.455 663.713 191.641 663.713 193.104C663.713 194.567 664.896 195.753 666.355 195.753Z" fill="#262C2D"/>
<path fill-rule="evenodd" clip-rule="evenodd" d="M666.355 194.76C667.266 194.76 668.006 194.019 668.006 193.104C668.006 192.19 667.266 191.448 666.355 191.448C665.443 191.448 664.704 192.19 664.704 193.104C664.704 194.019 665.443 194.76 666.355 194.76Z" fill="#121515"/>
<path opacity="0.4" fill-rule="evenodd" clip-rule="evenodd" d="M666.355 192.773C666.537 192.773 666.685 192.625 666.685 192.442C666.685 192.259 666.537 192.111 666.355 192.111C666.172 192.111 666.024 192.259 666.024 192.442C666.024 192.625 666.172 192.773 666.355 192.773Z" fill="#636F73"/>
<path fill-rule="evenodd" clip-rule="evenodd" d="M644.231 193.104C644.231 192.555 644.676 192.111 645.225 192.111H659.417C659.966 192.111 660.411 192.555 660.411 193.104V193.104C660.411 193.653 659.966 194.098 659.417 194.098H645.225C644.676 194.098 644.231 193.653 644.231 193.104V193.104Z" fill="#262C2D"/>
<defs>
<filter id="filter0_dd" x="577.955" y="0.996582" width="330.809" height="456.466" filterUnits="userSpaceOnUse" color-interpolation-filters="sRGB">
<feFlood flood-opacity="0" result="BackgroundImageFix"/>
<feColorMatrix in="SourceAlpha" type="matrix" values="0 0 0 0 0 0 0 0 0 0 0 0 0 0 0 0 0 0 127 0" result="hardAlpha"/>
<feOffset/>
<feGaussianBlur stdDeviation="1"/>
<feColorMatrix type="matrix" values="0 0 0 0 0 0 0 0 0 0.0823529 0 0 0 0 0.25098 0 0 0 0.14 0"/>
<feBlend mode="normal" in2="BackgroundImageFix" result="effect1_dropShadow"/>
<feColorMatrix in="SourceAlpha" type="matrix" values="0 0 0 0 0 0 0 0 0 0 0 0 0 0 0 0 0 0 127 0" result="hardAlpha"/>
<feOffset dy="2"/>
<feGaussianBlur stdDeviation="2"/>
<feColorMatrix type="matrix" values="0 0 0 0 0 0 0 0 0 0.0823529 0 0 0 0 0.25098 0 0 0 0.05 0"/>
<feBlend mode="normal" in2="effect1_dropShadow" result="effect2_dropShadow"/>
<feBlend mode="normal" in="SourceGraphic" in2="effect2_dropShadow" result="shape"/>
</filter>
<filter id="filter1_dd" x="64.4006" y="36.7737" width="591.376" height="409.596" filterUnits="userSpaceOnUse" color-interpolation-filters="sRGB">
<feFlood flood-opacity="0" result="BackgroundImageFix"/>
<feColorMatrix in="SourceAlpha" type="matrix" values="0 0 0 0 0 0 0 0 0 0 0 0 0 0 0 0 0 0 127 0" result="hardAlpha"/>
<feOffset/>
<feGaussianBlur stdDeviation="1"/>
<feColorMatrix type="matrix" values="0 0 0 0 0 0 0 0 0 0.0823529 0 0 0 0 0.25098 0 0 0 0.14 0"/>
<feBlend mode="normal" in2="BackgroundImageFix" result="effect1_dropShadow"/>
<feColorMatrix in="SourceAlpha" type="matrix" values="0 0 0 0 0 0 0 0 0 0 0 0 0 0 0 0 0 0 127 0" result="hardAlpha"/>
<feOffset dy="2"/>
<feGaussianBlur stdDeviation="2"/>
<feColorMatrix type="matrix" values="0 0 0 0 0 0 0 0 0 0.0823529 0 0 0 0 0.25098 0 0 0 0.05 0"/>
<feBlend mode="normal" in2="effect1_dropShadow" result="effect2_dropShadow"/>
<feBlend mode="normal" in="SourceGraphic" in2="effect2_dropShadow" result="shape"/>
</filter>
<linearGradient id="paint0_linear" x1="-6.19651e-07" y1="434.981" x2="360.089" y2="434.981" gradientUnits="userSpaceOnUse">
<stop stop-color="#303135"/>
<stop offset="0.0218797" stop-color="#535458"/>
<stop offset="0.0363004" stop-color="#4D4E52"/>
<stop offset="0.05818" stop-color="#333438"/>
<stop offset="0.0865241" stop-color="#35363A"/>
<stop offset="0.135753" stop-color="#4E4F53"/>
<stop offset="0.756906" stop-color="#818286"/>
<stop offset="1" stop-color="#818286"/>
</linearGradient>
<linearGradient id="paint1_linear" x1="719.999" y1="434.981" x2="359.91" y2="434.981" gradientUnits="userSpaceOnUse">
<stop stop-color="#303135"/>
<stop offset="0.0218797" stop-color="#535458"/>
<stop offset="0.0363004" stop-color="#4D4E52"/>
<stop offset="0.05818" stop-color="#333438"/>
<stop offset="0.0865241" stop-color="#35363A"/>
<stop offset="0.135753" stop-color="#4E4F53"/>
<stop offset="0.756906" stop-color="#818286"/>
<stop offset="1" stop-color="#818286"/>
</linearGradient>
<linearGradient id="paint2_linear" x1="308.699" y1="433.185" x2="411.479" y2="433.185" gradientUnits="userSpaceOnUse">
<stop stop-opacity="0.5"/>
<stop offset="0.139373" stop-color="#818487" stop-opacity="0"/>
<stop offset="0.860627" stop-color="#818487" stop-opacity="0"/>
<stop offset="1" stop-opacity="0.5"/>
</linearGradient>
<linearGradient id="paint3_linear" x1="360.089" y1="440.369" x2="360.089" y2="450.427" gradientUnits="userSpaceOnUse">
<stop stop-color="#303135"/>
<stop offset="1" stop-color="#08090D"/>
</linearGradient>
</defs>
</svg>
